# xmcd
#
# Track frame offsets:
#	150
#	11200
#	27547
#	40566
#	53752
#	66802
#	79289
#	93055
#	103543
#	120186
#	131791
#	145293
#	165728
#	178980
#	192734
#
# Disc length: 2718 seconds
# Revision: 2
# Processed by: cddbd v1.5.2PL0 Copyright (c) Steve Scherf et al.
# Submitted via: dBpowerAMP V12.0
#
DISCID=cf0a9c0f
DTITLE=Charlie Rich - The Great Charlie Rich CD 2
DYEAR=2005
DGENRE=Country
TTITLE0=Somebody Wrote That Song For Me
TTITLE1=That's The Way A Cowboy Rocks And Rolls
TTITLE2=I Take It On Home
TTITLE3=Beautiful Women
TTITLE4=Set Me Free
TTITLE5=The Most Beautiful Girl
TTITLE6=Take Time To Love
TTITLE7=A Satisfied Man
TTITLE8=A Field Of Yellow Daisies
TTITLE9=Why, Oh Why
TTITLE10=That's What Love Is
TTITLE11=Somewhere In My Lifetime
TTITLE12=To Sing A Love Song
TTITLE13=Nice 'N' Easy
TTITLE14=There Won't Be Anymore
EXTD=
EXTT0=
EXTT1=
EXTT2=
EXTT3=
EXTT4=
EXTT5=
EXTT6=
EXTT7=
EXTT8=
EXTT9=
EXTT10=
EXTT11=
EXTT12=
EXTT13=
EXTT14=
PLAYORDER=
